<?xml version="1.0" encoding="utf-8"?>
<!-- Generator: Adobe Illustrator 24.1.1, SVG Export Plug-In . SVG Version: 6.00 Build 0)  -->
<svg version="1.1" id="Layer_1" xmlns="http://www.w3.org/2000/svg" xmlns:xlink="http://www.w3.org/1999/xlink" x="0px" y="0px"
	 viewBox="0 0 1366 768" style="enable-background:new 0 0 1366 768;" xml:space="preserve">
<style type="text/css">
	.st0{fill:#00FFFF;}
</style>
<g>
	<path class="st0" d="M603,452.5c-5.24,0-10.52-3.04-15.72-9.03c-19.84-22.88-33.04-82.72-28.79-112.4
		c3.38-23.64,19.6-47.57,44.05-47.57l0.45,0c24.61,0.3,41.3,25.76,44.51,49.57c3.27,24.21-10.82,88.47-31,111.55
		C611.93,449.85,607.39,452.5,603,452.5z M603.5,302.5c-16.54,0-30,13.46-30,30s13.46,30,30,30s30-13.46,30-30
		S620.04,302.5,603.5,302.5z"/>
	<path d="M602.54,284c0.15,0,0.3,0,0.44,0c24.33,0.3,40.84,25.54,44.02,49.13c1.68,12.43-0.95,34.16-6.85,56.72
		c-6.39,24.43-15.15,44.27-24.03,54.43c-4.47,5.12-8.89,7.71-13.13,7.71c-5.09,0-10.25-2.98-15.34-8.85
		c-19.76-22.79-32.91-82.42-28.67-112.01c1.73-12.12,6.94-23.99,14.27-32.56C578.95,291.93,588.65,284,602.54,284 M603.5,363
		c16.82,0,30.5-13.68,30.5-30.5c0-16.82-13.68-30.5-30.5-30.5S573,315.68,573,332.5C573,349.32,586.68,363,603.5,363 M602.54,283
		c-24.19,0-41.08,23.83-44.54,48c-5.35,37.41,16.84,122,45,122c26,0,49.23-88.67,45-120c-3.28-24.36-20.43-49.7-45-50
		C602.85,283,602.7,283,602.54,283L602.54,283z M603.5,362c-16.29,0-29.5-13.21-29.5-29.5c0-16.29,13.21-29.5,29.5-29.5
		s29.5,13.21,29.5,29.5C633,348.79,619.79,362,603.5,362L603.5,362z"/>
</g>
</svg>
